<?xml version="1.0" standalone="no"?>
<!DOCTYPE svg PUBLIC "-//W3C//DTD SVG 20010904//EN"
 "http://www.w3.org/TR/2001/REC-SVG-20010904/DTD/svg10.dtd">
<svg version="1.0" xmlns="http://www.w3.org/2000/svg"
 width="512.000000pt" height="512.000000pt" viewBox="0 0 512.000000 512.000000"
 preserveAspectRatio="xMidYMid meet">
<metadata>
Created by potrace 1.11, written by Peter Selinger 2001-2013
</metadata>
<g transform="translate(0.000000,512.000000) scale(0.100000,-0.100000)"
fill="#000000" stroke="none">
<path d="M825 5113 c-47 -7 -145 -32 -203 -54 -172 -63 -339 -195 -454 -359
-53 -76 -79 -124 -111 -212 -54 -145 -52 -57 -52 -1928 0 -1650 1 -1739 18
-1814 43 -180 125 -326 261 -462 147 -147 307 -233 501 -268 123 -22 3434 -22
3548 0 195 37 349 119 493 259 157 154 252 331 283 530 3 22 6 818 6 1770 0
1839 2 1750 -46 1897 -60 182 -207 371 -378 487 -63 43 -183 102 -236 116 -16
5 -34 10 -40 12 -5 2 -46 10 -90 17 -68 13 -343 15 -1775 14 -932 -1 -1708 -3
-1725 -5z"/>
</g>
</svg>
